# xmcd CD database file generated by Grip 3.0.6
# 
# Track frame offsets:
#       150
#       6800
#       19965
#       31950
#       40200
#       47115
#       54825
#       71475
#       88013
#       102150
#       121825
#       130200
#       152375
#       175988
#       199313
# 
# Disc length: 2910 seconds
# 
# Revision: 3
# Processed by: cddbd v1.4PL0 Copyright (c) Steve Scherf et al.
# Submitted via: Grip 3.0.6
# 
DISCID=be0b5c0f
DTITLE=Various Artist - Good Morning Blues
DYEAR=1900
DGENRE=Blues
TTITLE0=Leadbelly - Went Out On The Mountain
TTITLE1=Leadbelly - Whoa Back
TTITLE2=Leadbelly - Worried Blues
TTITLE3=Leadbelly - Good Morning Blues
TTITLE4=Leadbelly - You Can't Lose Me Charlie
TTITLE5=Leadbelly - Boll Weevil
TTITLE6=Dan Smith - Babylon Is Falling Down
TTITLE7=Dan Smith - Where Shall I Be When The First Trumpet Sounds
TTITLE8=Dan Smith - Lining The Track
TTITLE9=Dan Smith - Cotton Needs Picking
TTITLE10=Rev. Gary Davis - Candy Man
TTITLE11=Rev. Gary Davis - Hesitation Blues
TTITLE12=Rev. Gary Davis - Whistling Blues
TTITLE13=Rev. Gary Davis - How Happy I Am
TTITLE14=Rev. Gary Davis - Soon My Work Will All Be Done
EXTD=
EXTT0=
EXTT1=
EXTT2=
EXTT3=
EXTT4=
EXTT5=
EXTT6=
EXTT7=
EXTT8=
EXTT9=
EXTT10=
EXTT11=
EXTT12=
EXTT13=
EXTT14=
PLAYORDER=
